<?xml version="1.0" standalone="no"?>
<!DOCTYPE svg PUBLIC "-//W3C//DTD SVG 20010904//EN"
 "http://www.w3.org/TR/2001/REC-SVG-20010904/DTD/svg10.dtd">
<svg version="1.0" xmlns="http://www.w3.org/2000/svg"
 width="1181.000000pt" height="1181.000000pt" viewBox="0 0 1181.000000 1181.000000"
 preserveAspectRatio="xMidYMid meet">
<metadata>
Created by potrace 1.15, written by Peter Selinger 2001-2017
</metadata>
<g transform="translate(0.000000,1181.000000) scale(0.100000,-0.100000)"
fill="#000000" stroke="none">
<path d="M0 5905 l0 -5905 5905 0 5905 0 0 5905 0 5905 -5905 0 -5905 0 0
-5905z m6060 -1102 l0 -408 35 71 c39 81 96 139 177 180 115 59 306 39 416
-43 57 -43 115 -110 141 -162 96 -191 83 -473 -29 -636 -99 -144 -239 -216
-418 -216 -159 0 -278 58 -352 172 l-39 60 -22 -42 c-32 -63 -125 -152 -182
-174 -26 -10 -49 -16 -51 -14 -3 2 0 40 5 84 6 46 8 365 7 750 -3 755 2 705
-81 759 l-41 26 217 0 217 0 0 -407z m1400 -333 c0 -822 -3 -787 66 -834 l39
-26 -264 0 -264 0 33 23 c19 12 43 38 54 57 21 34 21 47 21 700 0 626 -1 668
-19 713 -14 38 -29 56 -64 78 l-46 29 222 0 222 0 0 -740z m-5330 630 c289
-36 502 -146 622 -322 141 -208 154 -546 31 -781 -72 -137 -219 -264 -372
-320 -160 -60 -232 -67 -652 -67 l-383 0 42 36 c74 63 73 57 70 735 l-3 594
-28 48 c-15 26 -31 47 -35 47 -4 0 -18 9 -32 20 -25 20 -24 20 315 20 187 0
379 -5 425 -10z m1625 -435 c248 -63 415 -277 415 -530 0 -252 -166 -467 -410
-530 -80 -21 -236 -21 -314 0 -135 36 -263 131 -334 248 -17 29 -41 88 -52
131 -79 310 87 599 390 680 73 20 230 20 305 1z m4677 -12 c165 -61 268 -207
285 -405 l6 -68 -357 0 -357 0 6 -57 c23 -202 111 -330 257 -374 158 -48 311
7 399 144 32 50 39 56 39 35 0 -14 -16 -57 -35 -96 -58 -116 -171 -203 -301
-233 -69 -15 -218 -13 -288 6 -191 51 -330 197 -371 390 -65 307 95 591 376
670 79 22 266 15 341 -12z m-3722 -365 c0 -387 4 -427 43 -482 29 -41 99 -70
150 -62 86 14 146 68 184 166 14 38 18 88 21 305 4 299 -2 346 -51 392 -18 17
-41 35 -52 41 -15 9 33 11 197 12 l217 0 3 -467 c3 -527 0 -504 81 -557 l41
-26 -217 0 -217 0 0 138 -1 137 -18 -47 c-42 -108 -124 -193 -219 -228 -72
-27 -188 -30 -260 -6 -61 21 -135 84 -164 140 -43 84 -48 126 -48 436 -1 162
-5 315 -9 339 -10 51 -35 87 -81 119 l-33 22 217 0 216 0 0 -372z m-2413
-1274 c103 -21 173 -54 232 -109 72 -68 96 -127 96 -245 0 -84 -3 -101 -27
-146 -45 -85 -138 -154 -248 -184 -25 -7 -52 -15 -60 -17 -8 -3 14 -11 50 -18
253 -50 396 -204 376 -404 -18 -172 -120 -277 -324 -333 -72 -20 -105 -22
-552 -25 l-475 -4 36 26 c20 14 47 45 60 68 l24 42 3 594 c3 678 4 672 -70
735 l-42 36 423 0 c344 0 436 -3 498 -16z m1273 -424 c138 -30 230 -101 271
-209 19 -51 20 -79 22 -371 2 -298 3 -317 23 -350 27 -46 59 -62 114 -56 l45
4 -34 -29 c-92 -77 -266 -88 -364 -23 -46 30 -87 110 -87 168 l0 39 -31 -61
c-56 -112 -157 -173 -300 -180 -153 -8 -254 39 -304 141 -48 99 -33 222 38
295 69 71 160 106 396 152 86 17 167 33 180 36 l24 5 -6 122 c-8 151 -19 191
-66 238 -88 88 -244 70 -291 -34 -23 -50 -25 -96 -6 -141 17 -41 29 -49 85
-56 l45 -5 -34 -39 c-43 -49 -84 -66 -155 -66 -133 0 -210 89 -184 214 9 42
21 61 68 107 61 59 126 91 224 109 64 11 253 5 327 -10z m908 -27 c-35 -36
-42 -70 -28 -124 13 -50 260 -579 270 -579 12 0 220 510 226 554 9 63 -11 112
-58 147 l-41 29 158 0 158 0 -51 -53 c-27 -30 -61 -76 -75 -103 -13 -27 -127
-290 -252 -584 -125 -294 -240 -561 -256 -593 -78 -159 -155 -217 -285 -217
-75 0 -127 22 -168 70 -33 39 -40 67 -34 134 8 94 67 146 167 146 55 0 62 -7
31 -35 -28 -25 -35 -75 -17 -118 22 -52 56 -71 118 -65 73 7 109 46 182 198
l60 124 -247 494 c-195 391 -256 504 -291 541 -25 27 -45 51 -45 55 0 3 113 6
252 6 l252 0 -26 -27z"/>
<path d="M6222 4529 c-55 -28 -107 -89 -133 -158 -18 -47 -23 -84 -27 -222 -5
-187 6 -276 43 -349 66 -130 217 -177 324 -100 89 65 132 198 134 415 1 209
-40 335 -132 400 -57 40 -146 46 -209 14z"/>
<path d="M1812 4359 l3 -694 120 1 c137 1 204 14 290 57 199 99 310 369 291
703 -17 314 -142 513 -372 595 -45 16 -91 23 -197 26 l-137 6 2 -694z"/>
<path d="M3530 4623 c-49 -25 -96 -92 -120 -171 -32 -103 -46 -299 -32 -446
24 -253 95 -377 220 -378 142 -1 217 133 236 422 8 110 -7 301 -30 380 -24 82
-60 146 -100 176 -46 36 -123 43 -174 17z"/>
<path d="M8165 4622 c-43 -27 -61 -50 -90 -114 -30 -66 -55 -173 -55 -240 l0
-48 194 0 c107 0 197 3 199 8 2 4 0 59 -4 122 -12 196 -59 280 -161 287 -40 3
-60 -1 -83 -15z"/>
<path d="M1817 2973 c-4 -3 -7 -150 -7 -325 l0 -318 129 0 c154 0 211 15 277
73 53 47 77 91 94 171 23 114 -9 244 -80 314 -43 43 -93 68 -165 81 -64 12
-238 15 -248 4z"/>
<path d="M1817 2263 c-4 -3 -7 -156 -7 -340 l0 -333 148 0 c161 0 224 12 297
54 91 54 135 146 135 286 0 189 -86 296 -265 329 -64 12 -298 15 -308 4z"/>
<path d="M3455 2085 c-141 -33 -197 -70 -230 -148 -19 -45 -22 -159 -5 -202
40 -107 166 -122 256 -31 60 59 75 119 72 278 l-3 124 -90 -21z"/>
</g>
</svg>
