<svg width="57" height="57" xmlns="http://www.w3.org/2000/svg" xmlns:xlink="http://www.w3.org/1999/xlink" style="vector-effect: non-scaling-stroke;" stroke="null" preserveAspectRatio="xMidYMid meet">
 <defs stroke="null">
  <path style="vector-effect: non-scaling-stroke;" stroke="null" id="b3Q4SzZGf3" d="m47.74,28.53c0,10.02 -8.73,18.15 -19.48,18.15c-10.74,0 -19.47,-8.13 -19.47,-18.15c0,-10.03 8.73,-18.16 19.47,-18.16c10.75,0 19.48,8.13 19.48,18.16z"/>
  <path style="vector-effect: non-scaling-stroke;" stroke="null" id="hOvFmSKar" d="m1130.32,-84.89l-0.32,27.01l0,24.56"/>
  <path style="vector-effect: non-scaling-stroke;" stroke="null" id="bnis25YxY" d="m56.33,28.34l-28.36,0.36l-26.95,0.05"/>
  <path style="vector-effect: non-scaling-stroke;" stroke="null" id="a3IZve7vNc" d="m27.94,56.45l-0.17,-28.37l0.14,-26.94"/>
 </defs>
 <g stroke="null">
  <title stroke="null">background</title>
  <rect stroke="null" fill="none" id="canvas_background" height="402" width="582" y="-1" x="-1"/>
 </g>
 <g stroke="null">
  <title stroke="null">Layer 1</title>
  <g stroke="null" id="svg_1">
   <g stroke="null" id="svg_2">
    <g stroke="null" id="svg_3">
     <use x="0" y="-0.110001" stroke="null" id="svg_4" fill-opacity="0" fill="#ffffff" xlink:href="#b3Q4SzZGf3"/>
     <g stroke="null" id="svg_5">
      <use x="0" y="-0.110001" stroke="#ffffff" id="svg_6" stroke-width="2" fill-opacity="0" xlink:href="#b3Q4SzZGf3"/>
     </g>
    </g>
    <g stroke="null" id="svg_7">
     <g stroke="null" id="svg_8">
      <use x="0" y="-0.110001" stroke="#8babb1" id="svg_9" fill-opacity="0" xlink:href="#hOvFmSKar"/>
     </g>
    </g>
    <g stroke="null" id="svg_10">
     <g stroke="null" id="svg_11">
      <use stroke="#ffffff" transform="matrix(1,0,0,0.223242849111557,0,21.749200224876404) " x="-0.02" y="-0.83274" id="svg_12" stroke-width="2" fill-opacity="0" xlink:href="#bnis25YxY"/>
     </g>
    </g>
    <g stroke="null" id="svg_13">
     <g stroke="null" id="svg_14">
      <use transform="matrix(0.462307870388031,0,0,1,14.931710685460303,0) " stroke="#ffffff" x="0" y="-0.110001" id="svg_15" stroke-width="2" fill-opacity="0" xlink:href="#a3IZve7vNc"/>
     </g>
    </g>
   </g>
  </g>
 </g>
</svg>