<svg width="57" height="57" xmlns="http://www.w3.org/2000/svg" xmlns:xlink="http://www.w3.org/1999/xlink" preserveAspectRatio="xMidYMid meet">
 <defs>
  <path id="b3Q4SzZGf3" d="m47.74,28.53c0,10.02 -8.73,18.15 -19.48,18.15c-10.74,0 -19.47,-8.13 -19.47,-18.15c0,-10.03 8.73,-18.16 19.47,-18.16c10.75,0 19.48,8.13 19.48,18.16z"/>
  <path id="hOvFmSKar" d="m1130.32,-84.89l-0.32,27.01l0,24.56"/>
  <path id="bnis25YxY" d="m56.33,28.34l-28.36,0.36l-26.95,0.05"/>
  <path id="a3IZve7vNc" d="m27.94,56.45l-0.17,-28.37l0.14,-26.94"/>
 </defs>
 <g>
  <title>background</title>
  <rect fill="none" id="canvas_background" height="402" width="582" y="-1" x="-1"/>
 </g>
 <g>
  <title>Layer 1</title>
  <g id="svg_1">
   <g id="svg_2">
    <g stroke="null" id="svg_3">
     <use transform="matrix(0.8313952684402465,0,0,0.9095682501792908,4.353259682655334,2.6953598260879517) " stroke="null" x="0.21" y="-0.37" id="svg_4" fill-opacity="0" fill="#ffffff" xlink:href="#b3Q4SzZGf3"/>
     <g stroke="null" id="svg_5">
      <use transform="matrix(0.8313952684402465,0,0,0.9095682501792908,4.353259682655334,2.6953598260879517) " stroke="#ffffff" x="0.21" y="-0.37" id="svg_6" stroke-width="2" fill-opacity="0" xlink:href="#b3Q4SzZGf3"/>
     </g>
    </g>
    <g id="svg_7">
     <g id="svg_8">
      <use id="svg_9" stroke="#8babb1" fill-opacity="0" xlink:href="#hOvFmSKar"/>
     </g>
    </g>
    <g stroke="null" id="svg_10">
     <g stroke="null" id="svg_11">
      <use stroke="#ffffff" x="0" y="0" transform="matrix(0.7355478745082833,0,0,0.6359668374061584,6.687643221703297,10.316699883456522) " id="svg_12" stroke-width="2" fill-opacity="0" xlink:href="#bnis25YxY"/>
     </g>
    </g>
    <g stroke="null" id="svg_13">
     <g stroke="null" id="svg_14">
      <use stroke="#ffffff" x="0" y="0" transform="matrix(-0.7559230923652649,0,0,0.762532789666917,48.76198507878121,6.5393612809055) " id="svg_15" stroke-width="2" fill-opacity="0" xlink:href="#a3IZve7vNc"/>
     </g>
    </g>
   </g>
  </g>
 </g>
</svg>